<?xml version="1.0" ?><svg viewBox="0 0 512 512" xmlns="http://www.w3.org/2000/svg"><g id="Cheese"><path d="M81,404.1161a13.0958,13.0958,0,0,0,13.096,13.0957H417.8339A13.1659,13.1659,0,0,0,431,404.0458V373.0624a24.5281,24.5281,0,0,1,0-49.0562V234.1136H81ZM273.0428,284.87a24.5464,24.5464,0,1,1,28.8746,28.8687A24.5665,24.5665,0,0,1,273.0428,284.87ZM151.3754,335.6849a29.4548,29.4548,0,1,1,34.6423,34.6441A29.478,29.478,0,0,1,151.3754,335.6849Z"/><path d="M154.0514,95.8661a14.3039,14.3039,0,0,0-14.9348,2.4824c-32.4414,29.3311-53.47,67.4375-57.4373,109.5151H431Z"/></g></svg>