<svg width="30" height="35" viewBox="0 0 30 35" fill="none" xmlns="http://www.w3.org/2000/svg">
<path d="M10.125 25.9375L15 21.0625L19.875 25.9375L22.5 23.3125L17.625 18.4375L22.5 13.5625L19.875 10.9375L15 15.8125L10.125 10.9375L7.5 13.5625L12.375 18.4375L7.5 23.3125L10.125 25.9375ZM5.625 34.375C4.59375 34.375 3.71062 34.0075 2.97562 33.2725C2.24062 32.5375 1.87375 31.655 1.875 30.625V6.25H0V2.5H9.375V0.625H20.625V2.5H30V6.25H28.125V30.625C28.125 31.6562 27.7575 32.5394 27.0225 33.2744C26.2875 34.0094 25.405 34.3763 24.375 34.375H5.625Z" fill="#F24E1E"/>
</svg>
