<?xml version="1.0" ?><!DOCTYPE svg  PUBLIC '-//W3C//DTD SVG 1.1//EN'  'http://www.w3.org/Graphics/SVG/1.1/DTD/svg11.dtd'><svg enable-background="new 0 0 48 48" height="48px" version="1.1" viewBox="0 0 48 48" width="48px" xml:space="preserve" xmlns="http://www.w3.org/2000/svg" xmlns:xlink="http://www.w3.org/1999/xlink"><g id="Layer_3"><g><path d="M24,17.605c-3.532,0-6.394,2.863-6.394,6.395c0,3.531,2.862,6.395,6.394,6.395s6.395-2.863,6.395-6.395    C30.395,20.468,27.532,17.605,24,17.605z M24.28,28.738V26.35c0.98,0,1.775-0.77,1.832-1.735h2.544    C28.509,26.914,26.616,28.738,24.28,28.738z" fill="#241F20"/><path d="M47.344,16.515c0-7.825-6.032-14.207-13.695-14.833c-0.566,0.025-2.839,0.128-4.626,0.237    c-0.031,0.002-0.05,0.001-0.076,0.002c-6.796,0.661-14.686-1.42-14.686-1.42l-0.005,0.018c-0.999-0.318-2.055-0.511-3.161-0.511    c-5.765,0-10.438,4.673-10.438,10.438c0,1.286,0.256,2.507,0.689,3.641l-0.012,0.001l1.157,3.149    c1.154,3.831,3.878,13.038,4.909,17.961c0.02,0.086,0.037,0.162,0.056,0.246c1.139,7.107,7.282,12.547,14.714,12.547    c5.974,0,11.108-3.523,13.483-8.598c0.005,0.002,0.01,0.014,0.01,0.014l4.024-7.305c0.606-1.098,4.024-5.818,4.934-7.062    c0.026-0.042,0.06-0.077,0.089-0.115c0.104-0.131,0.163-0.208,0.163-0.208l-0.028,0.011C46.413,22.374,47.344,19.56,47.344,16.515    z M24,33.09c-5.021,0-9.091-4.07-9.091-9.09c0-5.021,4.07-9.091,9.091-9.091c5.021,0,9.091,4.069,9.091,9.091    C33.091,29.02,29.021,33.09,24,33.09z" fill="#241F20"/></g></g></svg>