<?xml version="1.0" ?><svg viewBox="0 0 512 512" xmlns="http://www.w3.org/2000/svg"><g id="Meat"><path d="M214.4055,88.9254C57.16,88.9254,46,211.68,46,248.2006v61.25c0,36.5221,27.3907,113.624,128.84,113.624,79.13,0,92.3194-57.8267,172.4622-57.8267,32.4643,0,45.6534,15.2174,77.103,15.2174S466,355.1029,466,331.77V270.52C466,192.4044,371.6512,88.9254,214.4055,88.9254Zm62.4313,43.7991a13.12,13.12,0,0,1,18.56,0L403.6776,241.0058a13.1236,13.1236,0,1,1-18.56,18.56L276.8368,151.2841A13.12,13.12,0,0,1,276.8368,132.7245Zm-130.6262.3675a13.12,13.12,0,0,1,18.56,0l116.0059,116.01a13.1236,13.1236,0,1,1-18.56,18.56l-116.0058-116.01A13.12,13.12,0,0,1,146.2106,133.092ZM90.5831,208.4539a13.12,13.12,0,0,1,18.56,0l82.8345,82.843a13.1236,13.1236,0,1,1-18.56,18.56l-82.8345-82.843A13.12,13.12,0,0,1,90.5831,208.4539ZM432.6364,331.8383a66.5045,66.5045,0,0,1-8.2288.5042c-17.7564,0-30.6848-4.3622-42.1008-8.2074-10.69-3.606-20.79-7.0111-35-7.0111-36.4527,0-57.5586,13.1463-79.9036,27.066-24.2676,15.12-49.3726,30.7574-92.5671,30.7574-43.1263,0-78.0323-12.8515-103.7439-38.1915A13.1239,13.1239,0,1,1,89.515,318.06c20.6275,20.3284,49.33,30.6378,85.3211,30.6378,35.6836,0,56.5759-13.0139,78.69-26.7883,23.3533-14.5477,49.8255-31.0351,93.7806-31.0351,18.5083,0,31.7273,4.4561,43.3911,8.3868,10.8691,3.6658,20.26,6.8317,33.71,6.8317a39.9611,39.9611,0,0,0,4.9646-.2991,13.1243,13.1243,0,0,1,3.2642,26.0449Z"/></g></svg>