<svg width="30" height="31" viewBox="0 0 30 31" fill="none" xmlns="http://www.w3.org/2000/svg">
<path d="M23.4376 12.6375V11.7563C23.4376 6.92 19.6576 3 15.0001 3C10.3426 3 6.56258 6.92 6.56258 11.7563V12.6375C6.56408 13.6894 6.26388 14.7198 5.69758 15.6063L4.31258 17.7625C3.04883 19.7313 4.01383 22.4075 6.21258 23.03C11.9577 24.6587 18.0424 24.6587 23.7876 23.03C25.9863 22.4075 26.9513 19.7312 25.6876 17.7637L24.3026 15.6075C23.7358 14.7211 23.4352 13.6908 23.4363 12.6388L23.4376 12.6375Z" stroke="black" stroke-width="1.875"/>
<path d="M9.375 24.25C10.1937 26.435 12.4025 28 15 28C17.5975 28 19.8063 26.435 20.625 24.25" stroke="black" stroke-width="1.875" stroke-linecap="round"/>
</svg>
