<svg width="30" height="31" viewBox="0 0 30 31" fill="none" xmlns="http://www.w3.org/2000/svg">
<path d="M26.25 15.5013C26.2537 17.7348 25.5894 19.9183 24.3425 21.7713C23.3142 23.305 21.9238 24.5617 20.2944 25.4303C18.6649 26.2989 16.8465 26.7526 15 26.7513C13.1535 26.7526 11.3351 26.2989 9.70563 25.4303C8.07616 24.5617 6.68581 23.305 5.6575 21.7713C4.67841 20.3118 4.05488 18.6432 3.83688 16.8994C3.61889 15.1555 3.81249 13.3847 4.40218 11.7292C4.99187 10.0736 5.96124 8.57916 7.23258 7.36574C8.50393 6.15232 10.0419 5.25363 11.7231 4.74172C13.4044 4.22981 15.1822 4.11892 16.9141 4.41793C18.6459 4.71694 20.2836 5.41754 21.6959 6.46357C23.1082 7.5096 24.2557 8.87195 25.0466 10.4414C25.8374 12.0109 26.2496 13.7438 26.25 15.5013Z" stroke="black" stroke-width="2.75"/>
<path d="M16.5621 11.75C16.5621 12.6125 15.8621 13.3125 14.9996 13.3125V15.1875C15.9113 15.1875 16.7856 14.8253 17.4303 14.1807C18.0749 13.536 18.4371 12.6617 18.4371 11.75H16.5621ZM14.9996 13.3125C14.1371 13.3125 13.4371 12.6125 13.4371 11.75H11.5621C11.5621 12.6617 11.9243 13.536 12.5689 14.1807C13.2136 14.8253 14.0879 15.1875 14.9996 15.1875V13.3125ZM13.4371 11.75C13.4371 10.8875 14.1371 10.1875 14.9996 10.1875V8.3125C14.0879 8.3125 13.2136 8.67466 12.5689 9.31932C11.9243 9.96398 11.5621 10.8383 11.5621 11.75H13.4371ZM14.9996 10.1875C15.8621 10.1875 16.5621 10.8875 16.5621 11.75H18.4371C18.4371 10.8383 18.0749 9.96398 17.4303 9.31932C16.7856 8.67466 15.9113 8.3125 14.9996 8.3125V10.1875ZM6.45711 22.82L5.55836 22.5525L5.41211 23.0425L5.74586 23.43L6.45711 22.82ZM23.5421 22.82L24.2546 23.4312L24.5871 23.0437L24.4409 22.5525L23.5421 22.82ZM11.2496 20.1875H18.7496V18.3125H11.2496V20.1875ZM11.2496 18.3125C9.97098 18.3126 8.7265 18.7252 7.70115 19.4891C6.67579 20.253 5.9243 21.3274 5.55836 22.5525L7.35586 23.0875C7.60653 22.2495 8.12078 21.5148 8.82224 20.9924C9.52371 20.4699 10.375 20.1877 11.2496 20.1875V18.3125ZM14.9996 25.8125C13.5114 25.8142 12.0405 25.493 10.6885 24.871C9.33643 24.2491 8.13544 23.3412 7.16836 22.21L5.74586 23.43C6.88894 24.7662 8.30816 25.8399 9.90572 26.5747C11.5033 27.3095 13.2412 27.6892 14.9996 27.6875V25.8125ZM18.7496 20.1875C20.5871 20.1875 22.1434 21.41 22.6434 23.0875L24.4409 22.5525C24.0749 21.3274 23.3234 20.253 22.2981 19.4891C21.2727 18.7252 20.0282 18.3126 18.7496 18.3125V20.1875ZM22.8309 22.21C21.8638 23.3412 20.6628 24.2491 19.3108 24.871C17.9587 25.493 16.4878 25.8142 14.9996 25.8125V27.6875C16.758 27.6892 18.4959 27.3095 20.0935 26.5747C21.6911 25.8399 23.1115 24.7675 24.2546 23.4312L22.8309 22.21Z" fill="black"/>
</svg>
