<svg width="17" height="17" viewBox="0 0 17 17" fill="none" xmlns="http://www.w3.org/2000/svg">
<g clip-path="url(#clip0_3_39)">
<path d="M13.9881 12.2184C13.6952 11.9255 13.2203 11.9255 12.9274 12.2184C12.6345 12.5113 12.6345 12.9862 12.9274 13.2791L13.9881 12.2184ZM15.7607 16.1124C16.0535 16.4053 16.5284 16.4053 16.8213 16.1124C17.1142 15.8195 17.1142 15.3446 16.8213 15.0517L15.7607 16.1124ZM12.9274 13.2791L15.7607 16.1124L16.8213 15.0517L13.9881 12.2184L12.9274 13.2791ZM7.79101 12.707C4.68441 12.707 2.16602 10.1886 2.16602 7.08203H0.666016C0.666016 11.0171 3.85599 14.207 7.79101 14.207V12.707ZM13.416 7.08203C13.416 10.1886 10.8976 12.707 7.79101 12.707V14.207C11.726 14.207 14.916 11.0171 14.916 7.08203H13.416ZM7.79101 1.45703C10.8976 1.45703 13.416 3.97543 13.416 7.08203H14.916C14.916 3.147 11.726 -0.0429688 7.79101 -0.0429688V1.45703ZM7.79101 -0.0429688C3.85599 -0.0429688 0.666016 3.147 0.666016 7.08203H2.16602C2.16602 3.97543 4.68441 1.45703 7.79101 1.45703V-0.0429688Z" fill="#2D264B"/>
</g>
<defs>
<clipPath id="clip0_3_39">
<rect width="17" height="17" fill="white"/>
</clipPath>
</defs>
</svg>
