<svg width="31" height="29" viewBox="0 0 31 29" fill="none" xmlns="http://www.w3.org/2000/svg">
<path d="M15.984 16.5898C15.4892 16.5898 15.0056 16.7277 14.5942 16.9858C14.1828 17.244 13.8622 17.611 13.6728 18.0404C13.4835 18.4697 13.434 18.9422 13.5305 19.398C13.627 19.8538 13.8653 20.2724 14.2151 20.601C14.565 20.9297 15.0107 21.1534 15.496 21.2441C15.9812 21.3348 16.4842 21.2882 16.9413 21.1104C17.3984 20.9325 17.7891 20.6314 18.064 20.245C18.3388 19.8586 18.4856 19.4043 18.4856 18.9395C18.4856 18.3164 18.222 17.7187 17.7529 17.2781C17.2837 16.8374 16.6474 16.5898 15.984 16.5898Z" fill="white"/>
<path d="M17.3738 11.4948C16.9624 11.753 16.4788 11.8908 15.984 11.8908C15.3205 11.8908 14.6842 11.6433 14.2151 11.2026C13.746 10.762 13.4824 10.1643 13.4824 9.54111C13.4824 9.07639 13.6291 8.62209 13.904 8.23569C14.1789 7.84928 14.5696 7.54811 15.0267 7.37027C15.4838 7.19242 15.9868 7.14589 16.472 7.23656C16.9573 7.32722 17.403 7.55101 17.7529 7.87962C18.1027 8.20823 18.341 8.62691 18.4375 9.08271C18.534 9.53851 18.4845 10.011 18.2951 10.4403C18.1058 10.8697 17.7852 11.2366 17.3738 11.4948Z" fill="white"/>
</svg>
