<?xml version="1.0" ?><svg id="Layer_1" style="enable-background:new 0 0 512 512;" version="1.1" viewBox="0 0 512 512" xml:space="preserve" xmlns="http://www.w3.org/2000/svg" xmlns:xlink="http://www.w3.org/1999/xlink"><style type="text/css">
	.st0{fill-rule:evenodd;clip-rule:evenodd;}
</style><path class="st0" d="M400,104.3V93.8H208.1l-19.5-63.9C184.3,15.6,171.3,6,156.4,6h-61v9.2h61c10.8,0,20.2,7,23.4,17.3l18.7,61.2  h-29.7v10.6h-16.6v18.8h14.2c0,0.4,0,0.8,0.1,1.2l42.3,365.2c1,9.3,8.8,16.4,18.2,16.4h56.8h1.3h56.8c9.4,0,17.2-7.1,18.2-16.4  l42.3-365.2c0-0.4,0-0.8,0.1-1.2h14.2v-18.8H400z M346.3,324.8c-10.4,17.4-34.2,29.5-61.9,29.5c-27.7,0-51.5-12.2-61.9-29.5  c-14.5-5.1-23.4-12-23.4-19.7c0-7.6,8.9-14.5,23.4-19.7c10.4-17.4,34.2-29.5,61.9-29.5c27.7,0,51.5,12.2,61.9,29.5  c14.5,5.1,23.4,12,23.4,19.7C369.6,312.7,360.7,319.7,346.3,324.8z"/></svg>