<?xml version="1.0" ?><svg id="Layer_1" style="enable-background:new 0 0 32 32;" version="1.1" viewBox="0 0 32 32" xml:space="preserve" xmlns="http://www.w3.org/2000/svg" xmlns:xlink="http://www.w3.org/1999/xlink"><g><g><g><path d="M13.25,19.75c-0.2558594,0-0.5117188-0.0976563-0.7070313-0.2929688c-0.390625-0.390625-0.390625-1.0234375,0-1.4140625     l5.5-5.5c0.390625-0.390625,1.0234375-0.390625,1.4140625,0s0.390625,1.0234375,0,1.4140625l-5.5,5.5     C13.7617188,19.6523438,13.5058594,19.75,13.25,19.75z"/></g><g><path d="M18.75,19.75c-0.2558594,0-0.5117188-0.0976563-0.7070313-0.2929688l-5.5-5.5     c-0.390625-0.390625-0.390625-1.0234375,0-1.4140625s1.0234375-0.390625,1.4140625,0l5.5,5.5     c0.390625,0.390625,0.390625,1.0234375,0,1.4140625C19.2617188,19.6523438,19.0058594,19.75,18.75,19.75z"/></g></g><g><path d="M24.71875,29H7.28125C4.9204102,29,3,27.0791016,3,24.71875V7.28125C3,4.9208984,4.9204102,3,7.28125,3h17.4375    C27.0795898,3,29,4.9208984,29,7.28125v17.4375C29,27.0791016,27.0795898,29,24.71875,29z M7.28125,5    C6.0234375,5,5,6.0234375,5,7.28125v17.4375C5,25.9765625,6.0234375,27,7.28125,27h17.4375    C25.9765625,27,27,25.9765625,27,24.71875V7.28125C27,6.0234375,25.9765625,5,24.71875,5H7.28125z"/></g></g></svg>